<?xml version="1.0" encoding="UTF-8" standalone="no"?>
<!-- Created with Inkscape (http://www.inkscape.org/) -->

<svg
   xmlns:dc="http://purl.org/dc/elements/1.1/"
   xmlns:cc="http://creativecommons.org/ns#"
   xmlns:rdf="http://www.w3.org/1999/02/22-rdf-syntax-ns#"
   xmlns:svg="http://www.w3.org/2000/svg"
   xmlns="http://www.w3.org/2000/svg"
   xmlns:sodipodi="http://sodipodi.sourceforge.net/DTD/sodipodi-0.dtd"
   xmlns:inkscape="http://www.inkscape.org/namespaces/inkscape"
   width="198.8432mm"
   height="121.05024mm"
   viewBox="0 0 198.8432 121.05024"
   version="1.1"
   id="svg1387"
   inkscape:version="0.92.3 (2405546, 2018-03-11)"
   sodipodi:docname="logo.svg">
  <defs
     id="defs1381" />
  <sodipodi:namedview
     id="base"
     pagecolor="#ffffff"
     bordercolor="#666666"
     borderopacity="1.0"
     inkscape:pageopacity="0.0"
     inkscape:pageshadow="2"
     inkscape:zoom="1.4"
     inkscape:cx="242.50315"
     inkscape:cy="195.07896"
     inkscape:document-units="mm"
     inkscape:current-layer="layer1"
     showgrid="false"
     fit-margin-top="0"
     fit-margin-left="0"
     fit-margin-right="0"
     fit-margin-bottom="0"
     inkscape:window-width="1853"
     inkscape:window-height="1025"
     inkscape:window-x="67"
     inkscape:window-y="27"
     inkscape:window-maximized="1" />
  <metadata
     id="metadata1384">
    <rdf:RDF>
      <cc:Work
         rdf:about="">
        <dc:format>image/svg+xml</dc:format>
        <dc:type
           rdf:resource="http://purl.org/dc/dcmitype/StillImage" />
        <dc:title></dc:title>
      </cc:Work>
    </rdf:RDF>
  </metadata>
  <g
     inkscape:label="Layer 1"
     inkscape:groupmode="layer"
     id="layer1"
     transform="translate(-22.286731,-32.367736)">
    <path
       style="opacity:1;fill:#800080;fill-opacity:1;stroke:#800080;stroke-width:3.71125269;stroke-linecap:round;stroke-linejoin:bevel;stroke-miterlimit:4;stroke-dasharray:none;stroke-dashoffset:0;stroke-opacity:1"
       d="M 32.657005,39.746822 H 189.19353 c 1.58374,0 2.85873,1.274993 2.85873,2.858729 v 91.917379 c 0,1.58373 -1.27499,2.85873 -2.85873,2.85873 H 32.657005 c -1.583735,0 -2.858728,-1.275 -2.858728,-2.85873 V 42.605551 c 0,-1.583736 1.274993,-2.858729 2.858728,-2.858729 z"
       id="rect1040" />
    <path
       style="opacity:1;fill:#ffffff;fill-opacity:1;stroke:none;stroke-width:3.71125269;stroke-linecap:round;stroke-linejoin:bevel;stroke-miterlimit:4;stroke-dasharray:none;stroke-dashoffset:0;stroke-opacity:1"
       d="M 38.564118,60.958195 H 159.44826 c 2.23771,0 4.03918,1.745549 4.03918,3.913788 v 62.912897 c 0,2.16824 -1.80147,3.91379 -4.03918,3.91379 H 38.564118 c -2.237708,0 -4.039185,-1.74555 -4.039185,-3.91379 V 64.871983 c 0,-2.168239 1.801477,-3.913788 4.039185,-3.913788 z"
       id="rect1040-1" />
    <path
       style="opacity:1;fill:#ffffff;fill-opacity:1;stroke:#800080;stroke-width:1.564574;stroke-linecap:round;stroke-linejoin:bevel;stroke-miterlimit:4;stroke-dasharray:none;stroke-dashoffset:0;stroke-opacity:1"
       d="m 154.92546,90.242296 11.34508,-4.578312 18.90589,-0.575222 c 2.66107,-0.08097 4.9663,1.322284 4.9663,2.964759 v 33.374699 c 0,1.64248 -2.30543,3.05837 -4.9663,2.96476 l -19.14997,-0.67372 -11.101,-4.47982 c -2.56234,-1.03403 -4.9663,-1.32228 -4.9663,-2.96475 V 93.207056 c 0,-1.642477 2.40396,-1.930726 4.9663,-2.96476 z"
       id="rect36-3"
       inkscape:connector-curvature="0"
       sodipodi:nodetypes="scsssscssss" />
    <path
       style="opacity:1;fill:none;fill-opacity:1;stroke:#800080;stroke-width:1.564574;stroke-linecap:round;stroke-linejoin:bevel;stroke-miterlimit:4;stroke-dasharray:none;stroke-dashoffset:0;stroke-opacity:1"
       d="m 207.18727,138.84901 h 8.1624 c 1.20572,0 2.17639,0.97068 2.17639,2.1764 0,1.20572 -0.97067,2.17639 -2.17639,2.17639 h -8.1624 c -1.20572,0 -2.17639,-0.97067 -2.17639,-2.17639 0,-1.20572 0.97067,-2.1764 2.17639,-2.1764 z"
       id="rect930-6" />
    <path
       style="opacity:1;fill:#ffffff;fill-opacity:1;stroke:#800080;stroke-width:1.564574;stroke-linecap:round;stroke-linejoin:bevel;stroke-miterlimit:4;stroke-dasharray:none;stroke-dashoffset:0;stroke-opacity:1"
       d="m 168.51569,63.759214 6.79855,-1.432364 11.32936,-0.179969 c 1.59465,-0.02533 2.97606,0.41369 2.97606,0.927556 v 10.441614 c 0,0.513866 -1.38153,0.95684 -2.97606,0.927555 l -11.47563,-0.210784 -6.65228,-1.401555 c -1.53549,-0.323506 -2.97606,-0.41369 -2.97606,-0.927556 v -7.216942 c 0,-0.513866 1.44057,-0.604043 2.97606,-0.927555 z"
       id="rect36-3-6"
       inkscape:connector-curvature="0"
       sodipodi:nodetypes="scsssscssss" />
    <path
       style="opacity:1;fill:#ffffff;fill-opacity:1;stroke:#800080;stroke-width:1.564574;stroke-linecap:round;stroke-linejoin:bevel;stroke-miterlimit:4;stroke-dasharray:none;stroke-dashoffset:0;stroke-opacity:1"
       d="m 168.51569,136.4892 6.79854,-1.43236 11.32937,-0.17997 c 1.59465,-0.0253 2.97606,0.41369 2.97606,0.92756 v 10.44161 c 0,0.51387 -1.38153,0.95684 -2.97606,0.92756 l -11.47563,-0.21079 -6.65228,-1.40155 c -1.53549,-0.32351 -2.97606,-0.41369 -2.97606,-0.92756 v -7.21694 c 0,-0.51387 1.44057,-0.60404 2.97606,-0.92756 z"
       id="rect36-3-6-7"
       inkscape:connector-curvature="0"
       sodipodi:nodetypes="scsssscssss" />
    <path
       style="opacity:1;fill:none;fill-opacity:1;stroke:#800080;stroke-width:1.564574;stroke-linecap:round;stroke-linejoin:bevel;stroke-miterlimit:4;stroke-dasharray:none;stroke-dashoffset:0;stroke-opacity:1"
       d="m 207.18727,66.119034 h 8.1624 c 1.20572,0 2.17639,0.970671 2.17639,2.176393 0,1.205722 -0.97067,2.176393 -2.17639,2.176393 h -8.1624 c -1.20572,0 -2.17639,-0.970671 -2.17639,-2.176393 0,-1.205722 0.97067,-2.176393 2.17639,-2.176393 z"
       id="rect930" />
    <path
       style="opacity:1;fill:#000000;fill-opacity:0;stroke:#800080;stroke-width:1.564574;stroke-linecap:round;stroke-linejoin:bevel;stroke-miterlimit:4;stroke-dasharray:none;stroke-dashoffset:0;stroke-opacity:1"
       d="m 209.5135,74.524232 h 3.75062 c 3.92481,0 7.0845,2.386529 7.0845,5.350954 v 49.732444 c 0,2.96443 -3.15969,5.35096 -7.0845,5.35096 h -3.75062"
       id="rect32"
       inkscape:connector-curvature="0"
       sodipodi:nodetypes="cssssc" />
    <path
       style="opacity:1;fill:#ffffff;fill-opacity:1;stroke:#800080;stroke-width:1.5649116;stroke-linecap:round;stroke-linejoin:bevel;stroke-miterlimit:4;stroke-dasharray:none;stroke-dashoffset:0;stroke-opacity:1"
       d="m 192.08781,56.848274 h 12.5465 c 2.70307,0 4.87919,3.222465 4.87919,7.225258 v 81.335758 c 0,4.00279 -2.17612,7.22525 -4.87919,7.22525 h -12.5465 c -2.70307,0 -4.87919,-3.22246 -4.87919,-7.22525 V 64.073532 c 0,-4.002793 2.17612,-7.225258 4.87919,-7.225258 z"
       id="rect36" />
    <path
       style="fill:none;stroke:#800080;stroke-width:1.564574;stroke-linecap:round;stroke-linejoin:miter;stroke-miterlimit:4;stroke-dasharray:none;stroke-opacity:1"
       d="m 167.14185,95.2677 v 18.94742"
       id="path892"
       inkscape:connector-curvature="0" />
    <path
       style="fill:none;stroke:#800080;stroke-width:1.564574;stroke-linecap:round;stroke-linejoin:miter;stroke-miterlimit:4;stroke-dasharray:none;stroke-opacity:1"
       d="m 172.69706,95.2677 v 18.94742"
       id="path892-5"
       inkscape:connector-curvature="0" />
    <path
       style="fill:none;stroke:#800080;stroke-width:1.564574;stroke-linecap:round;stroke-linejoin:miter;stroke-miterlimit:4;stroke-dasharray:none;stroke-opacity:1"
       d="m 178.25227,95.2677 v 18.94742"
       id="path892-3"
       inkscape:connector-curvature="0" />
    <g
       aria-label="trigger

  handler
"
       transform="scale(0.99849361,1.0015087)"
       style="font-style:normal;font-weight:normal;font-size:20.81428909px;line-height:0.5;font-family:sans-serif;letter-spacing:0px;word-spacing:0px;fill:#800080;fill-opacity:1;stroke:none;stroke-width:0.32731187"
       id="text967">
      <path
         d="m 41.811121,80.704596 v 3.231906 h 4.248229 v 1.453341 h -4.248229 v 6.179242 q 0,1.26024 0.477672,1.758239 0.477672,0.497998 1.666769,0.497998 h 2.103788 v 1.493994 h -2.286726 q -2.103788,0 -2.967662,-0.843548 -0.863874,-0.843548 -0.863874,-2.906683 v -6.179242 h -3.038805 v -1.453341 h 3.038805 v -3.231906 z"
         style="font-style:normal;font-variant:normal;font-weight:normal;font-stretch:normal;font-family:monospace;-inkscape-font-specification:monospace;letter-spacing:-0.64003938px;fill:#800080;stroke:none;stroke-width:0.32731187"
         id="path1556" />
      <path
         d="m 59.190484,86.284207 q -0.59963,-0.467508 -1.219587,-0.680936 -0.619957,-0.213428 -1.361873,-0.213428 -1.748075,0 -2.672928,1.097629 -0.924854,1.097628 -0.924854,3.170927 v 5.660917 H 51.131045 V 83.936502 h 1.880197 v 2.225747 q 0.467508,-1.209425 1.433015,-1.849708 0.97567,-0.650446 2.307053,-0.650446 0.691099,0 1.290729,0.172774 0.599631,0.172775 1.148445,0.538652 z"
         style="font-style:normal;font-variant:normal;font-weight:normal;font-stretch:normal;font-family:monospace;-inkscape-font-specification:monospace;letter-spacing:-0.64003938px;fill:#800080;stroke:none;stroke-width:0.32731187"
         id="path1558" />
      <path
         d="m 61.9348,83.936502 h 4.78688 v 9.929473 h 3.709578 v 1.453341 h -9.28919 v -1.453341 h 3.709578 V 85.389843 H 61.9348 Z m 2.916846,-4.431167 h 1.870034 v 2.368032 h -1.870034 z"
         style="font-style:normal;font-variant:normal;font-weight:normal;font-stretch:normal;font-family:monospace;-inkscape-font-specification:monospace;letter-spacing:-0.64003938px;fill:#800080;stroke:none;stroke-width:0.32731187"
         id="path1560" />
      <path
         d="m 79.934118,89.53644 q 0,-2.103788 -0.691099,-3.191253 -0.680936,-1.097629 -1.991993,-1.097629 -1.372035,0 -2.093625,1.097629 -0.721589,1.087465 -0.721589,3.191253 0,2.103788 0.721589,3.21158 0.731753,1.097628 2.113952,1.097628 1.29073,0 1.971666,-1.107792 0.691099,-1.107791 0.691099,-3.201416 z m 1.870034,5.051124 q 0,2.561133 -1.209424,3.882353 -1.209424,1.321219 -3.55713,1.321219 -0.772405,0 -1.615953,-0.142285 -0.843547,-0.142285 -1.687095,-0.416692 v -1.849708 q 0.995996,0.467509 1.809054,0.6911 0.813058,0.223591 1.493994,0.223591 1.514321,0 2.205421,-0.823222 0.691099,-0.823221 0.691099,-2.611949 v -0.08131 -1.270403 q -0.447182,0.955343 -1.219587,1.422851 -0.772405,0.467509 -1.880197,0.467509 -1.991993,0 -3.18109,-1.595627 -1.189098,-1.595626 -1.189098,-4.268555 0,-2.683092 1.189098,-4.278719 1.189097,-1.595626 3.18109,-1.595626 1.097628,0 1.859871,0.437018 0.762242,0.437019 1.239913,1.35171 v -1.473668 h 1.870034 z"
         style="font-style:normal;font-variant:normal;font-weight:normal;font-stretch:normal;font-family:monospace;-inkscape-font-specification:monospace;letter-spacing:-0.64003938px;fill:#800080;stroke:none;stroke-width:0.32731187"
         id="path1562" />
      <path
         d="m 91.815176,89.53644 q 0,-2.103788 -0.691099,-3.191253 -0.680937,-1.097629 -1.991993,-1.097629 -1.372036,0 -2.093625,1.097629 -0.721589,1.087465 -0.721589,3.191253 0,2.103788 0.721589,3.21158 0.731753,1.097628 2.113951,1.097628 1.29073,0 1.971667,-1.107792 0.691099,-1.107791 0.691099,-3.201416 z m 1.870034,5.051124 q 0,2.561133 -1.209424,3.882353 -1.209424,1.321219 -3.55713,1.321219 -0.772405,0 -1.615953,-0.142285 -0.843548,-0.142285 -1.687096,-0.416692 v -1.849708 q 0.995997,0.467509 1.809055,0.6911 0.813058,0.223591 1.493994,0.223591 1.514321,0 2.205421,-0.823222 0.691099,-0.823221 0.691099,-2.611949 v -0.08131 -1.270403 q -0.447182,0.955343 -1.219587,1.422851 -0.772406,0.467509 -1.880197,0.467509 -1.991993,0 -3.18109,-1.595627 -1.189098,-1.595626 -1.189098,-4.268555 0,-2.683092 1.189098,-4.278719 1.189097,-1.595626 3.18109,-1.595626 1.097628,0 1.85987,0.437018 0.762242,0.437019 1.239914,1.35171 v -1.473668 h 1.870034 z"
         style="font-style:normal;font-variant:normal;font-weight:normal;font-stretch:normal;font-family:monospace;-inkscape-font-specification:monospace;letter-spacing:-0.64003938px;fill:#800080;stroke:none;stroke-width:0.32731187"
         id="path1564" />
      <path
         d="m 106.27769,89.1604 v 0.914691 h -8.100089 v 0.06098 q 0,1.859871 0.965507,2.876194 0.975672,1.016322 2.744072,1.016322 0.89436,0 1.87003,-0.28457 0.97567,-0.28457 2.08346,-0.863874 v 1.85987 q -1.06713,0.437019 -2.06313,0.650447 -0.98583,0.223591 -1.91069,0.223591 -2.652599,0 -4.146594,-1.585464 -1.493994,-1.595626 -1.493994,-4.390514 0,-2.723745 1.463504,-4.349861 1.463505,-1.626116 3.902684,-1.626116 2.17493,0 3.425,1.473668 1.26024,1.473667 1.26024,4.024637 z m -1.87003,-0.548814 q -0.0407,-1.646443 -0.78257,-2.500154 -0.73175,-0.863874 -2.11395,-0.863874 -1.35171,0 -2.225747,0.894364 -0.874037,0.894364 -1.036649,2.479827 z"
         style="font-style:normal;font-variant:normal;font-weight:normal;font-stretch:normal;font-family:monospace;-inkscape-font-specification:monospace;letter-spacing:-0.64003938px;fill:#800080;stroke:none;stroke-width:0.32731187"
         id="path1566" />
      <path
         d="m 118.59577,86.284207 q -0.59963,-0.467508 -1.21959,-0.680936 -0.61996,-0.213428 -1.36187,-0.213428 -1.74808,0 -2.67293,1.097629 -0.92486,1.097628 -0.92486,3.170927 v 5.660917 h -1.88019 V 83.936502 h 1.88019 v 2.225747 q 0.46751,-1.209425 1.43302,-1.849708 0.97567,-0.650446 2.30705,-0.650446 0.6911,0 1.29073,0.172774 0.59963,0.172775 1.14845,0.538652 z"
         style="font-style:normal;font-variant:normal;font-weight:normal;font-stretch:normal;font-family:monospace;-inkscape-font-specification:monospace;letter-spacing:-0.64003938px;fill:#800080;stroke:none;stroke-width:0.32731187"
         id="path1568" />
      <path
         d="m 70.014565,109.11966 v 7.05328 h -1.880197 v -7.05328 q 0,-1.53465 -0.538651,-2.25624 -0.538651,-0.72159 -1.687096,-0.72159 -1.311056,0 -2.022482,0.93502 -0.701262,0.92485 -0.701262,2.66277 v 6.43332 h -1.870034 v -15.81398 h 1.870034 v 6.13859 q 0.497998,-0.97567 1.351709,-1.47367 0.853711,-0.50816 2.022482,-0.50816 1.737912,0 2.591623,1.14844 0.863874,1.13828 0.863874,3.4555 z"
         style="font-style:normal;font-variant:normal;font-weight:normal;font-stretch:normal;font-family:monospace;-inkscape-font-specification:monospace;letter-spacing:-0.64003938px;fill:#800080;stroke:none;stroke-width:0.32731187"
         id="path1570" />
      <path
         d="m 78.348655,110.45104 h -0.619957 q -1.63628,0 -2.469664,0.57931 -0.823222,0.56914 -0.823222,1.70742 0,1.02648 0.619957,1.59563 0.619957,0.56914 1.717586,0.56914 1.54481,0 2.429011,-1.06714 0.884201,-1.07731 0.894364,-2.96767 v -0.41669 z m 3.628272,-0.7724 v 6.4943 H 80.09673 v -1.6871 q -0.599631,1.01633 -1.514321,1.50416 -0.904527,0.47767 -2.20542,0.47767 -1.737912,0 -2.774561,-0.97567 -1.036649,-0.98583 -1.036649,-2.63227 0,-1.90053 1.270403,-2.88636 1.280567,-0.98583 3.750231,-0.98583 h 2.510317 v -0.29474 q -0.01016,-1.36187 -0.6911,-1.97166 -0.680936,-0.61996 -2.17493,-0.61996 -0.955344,0 -1.931013,0.27441 -0.97567,0.27441 -1.900524,0.80289 v -1.87003 q 1.036649,-0.39637 1.981829,-0.58947 0.955344,-0.20326 1.849708,-0.20326 1.412688,0 2.408685,0.41669 1.006159,0.41669 1.626116,1.25008 0.386203,0.50816 0.548814,1.26024 0.162612,0.74191 0.162612,2.23591 z"
         style="font-style:normal;font-variant:normal;font-weight:normal;font-stretch:normal;font-family:monospace;-inkscape-font-specification:monospace;letter-spacing:-0.64003938px;fill:#800080;stroke:none;stroke-width:0.32731187"
         id="path1572" />
      <path
         d="m 93.776679,109.11966 v 7.05328 h -1.880197 v -7.05328 q 0,-1.53465 -0.538651,-2.25624 -0.538651,-0.72159 -1.687096,-0.72159 -1.311056,0 -2.022482,0.93502 -0.701263,0.92485 -0.701263,2.66277 v 6.43332 h -1.870034 v -11.38282 h 1.870034 v 1.70743 q 0.497998,-0.97567 1.351709,-1.47367 0.853711,-0.50816 2.022483,-0.50816 1.737911,0 2.591622,1.14844 0.863875,1.13828 0.863875,3.4555 z"
         style="font-style:normal;font-variant:normal;font-weight:normal;font-stretch:normal;font-family:monospace;-inkscape-font-specification:monospace;letter-spacing:-0.64003938px;fill:#800080;stroke:none;stroke-width:0.32731187"
         id="path1574" />
      <path
         d="m 103.69623,106.24347 v -5.88451 h 1.87004 v 15.81398 h -1.87004 v -1.43302 q -0.4675,0.84355 -1.25007,1.29073 -0.77241,0.43702 -1.78873,0.43702 -2.063136,0 -3.252234,-1.59562 -1.178934,-1.60579 -1.178934,-4.42101 0,-2.77456 1.189097,-4.34986 1.189098,-1.58546 3.242071,-1.58546 1.02648,0 1.80905,0.44718 0.78257,0.43702 1.22975,1.28057 z m -5.498302,4.24823 q 0,2.17493 0.691099,3.28272 0.6911,1.10779 2.042813,1.10779 1.35171,0 2.05297,-1.11796 0.71142,-1.11795 0.71142,-3.27255 0,-2.16477 -0.71142,-3.27256 -0.70126,-1.11796 -2.05297,-1.11796 -1.351713,0 -2.042813,1.10779 -0.691099,1.10779 -0.691099,3.28273 z"
         style="font-style:normal;font-variant:normal;font-weight:normal;font-stretch:normal;font-family:monospace;-inkscape-font-specification:monospace;letter-spacing:-0.64003938px;fill:#800080;stroke:none;stroke-width:0.32731187"
         id="path1576" />
      <path
         d="m 113.35154,112.04667 q 0,1.26024 0.45735,1.90052 0.4675,0.64029 1.37203,0.64029 h 2.1851 v 1.58546 h -2.36804 q -1.67693,0 -2.60178,-1.0773 -0.91469,-1.0773 -0.91469,-3.04897 v -10.336 h -2.99815 v -1.46351 h 4.86818 z"
         style="font-style:normal;font-variant:normal;font-weight:normal;font-stretch:normal;font-family:monospace;-inkscape-font-specification:monospace;letter-spacing:-0.64003938px;fill:#800080;stroke:none;stroke-width:0.32731187"
         id="path1578" />
      <path
         d="m 130.03981,110.01402 v 0.91469 h -8.1001 v 0.061 q 0,1.85987 0.96551,2.8762 0.97567,1.01632 2.74407,1.01632 0.89436,0 1.87003,-0.28457 0.97567,-0.28457 2.08347,-0.86388 v 1.85988 q -1.06714,0.43701 -2.06314,0.65044 -0.98583,0.22359 -1.91069,0.22359 -2.6526,0 -4.14659,-1.58546 -1.494,-1.59563 -1.494,-4.39051 0,-2.72375 1.46351,-4.34987 1.4635,-1.62611 3.90268,-1.62611 2.17493,0 3.425,1.47367 1.26025,1.47366 1.26025,4.02463 z m -1.87004,-0.54881 q -0.0406,-1.64644 -0.78257,-2.50015 -0.73175,-0.86388 -2.11395,-0.86388 -1.35171,0 -2.22575,0.89437 -0.87403,0.89436 -1.03664,2.47982 z"
         style="font-style:normal;font-variant:normal;font-weight:normal;font-stretch:normal;font-family:monospace;-inkscape-font-specification:monospace;letter-spacing:-0.64003938px;fill:#800080;stroke:none;stroke-width:0.32731187"
         id="path1580" />
      <path
         d="m 142.35788,107.13783 q -0.59963,-0.46751 -1.21959,-0.68094 -0.61995,-0.21342 -1.36187,-0.21342 -1.74807,0 -2.67293,1.09762 -0.92485,1.09763 -0.92485,3.17093 v 5.66092 h -1.8802 v -11.38282 h 1.8802 v 2.22575 q 0.46751,-1.20942 1.43301,-1.84971 0.97567,-0.65044 2.30706,-0.65044 0.6911,0 1.29073,0.17277 0.59963,0.17278 1.14844,0.53865 z"
         style="font-style:normal;font-variant:normal;font-weight:normal;font-stretch:normal;font-family:monospace;-inkscape-font-specification:monospace;letter-spacing:-0.64003938px;fill:#800080;stroke:none;stroke-width:0.32731187"
         id="path1582" />
    </g>
    <path
       style="fill:#800080;stroke:#800080;stroke-width:0.18333653px;stroke-linecap:butt;stroke-linejoin:miter;stroke-opacity:1"
       d="m 121.32473,93.50727 10.62518,2.90344 -1.08976,-3.778449 10.86357,4.454594 -0.9876,-2.90344 6.26613,2.068205 -11.37439,-7.079621 1.02165,3.142078 -10.14841,-5.21028 0.61299,3.698901 -5.78726,-2.706419 z"
       id="path1020"
       inkscape:connector-curvature="0"
       sodipodi:nodetypes="cccccccccccc" />
    <path
       style="opacity:1;fill:#ffffff;fill-opacity:1;stroke:#800080;stroke-width:1.5649116;stroke-linecap:round;stroke-linejoin:bevel;stroke-miterlimit:4;stroke-dasharray:none;stroke-dashoffset:0;stroke-opacity:1"
       d="m 25.264841,33.140453 h 54.60511 c 1.210932,0 2.185797,0.974866 2.185797,2.185797 v 15.060131 c 0,1.210932 -0.974865,2.185797 -2.185797,2.185797 h -54.60511 c -1.210931,0 -2.185797,-0.974865 -2.185797,-2.185797 V 35.32625 c 0,-1.210931 0.974866,-2.185797 2.185797,-2.185797 z"
       id="rect1171" />
    <g
       aria-label="http://..."
       transform="scale(1.0126036,0.98755329)"
       style="font-style:normal;font-weight:normal;font-size:11.66022778px;line-height:1.25;font-family:sans-serif;letter-spacing:0px;word-spacing:0px;fill:none;fill-opacity:1;stroke:#800080;stroke-width:0.30927107;stroke-miterlimit:4;stroke-dasharray:none"
       id="text1089">
      <path
         d="m 32.840507,43.058971 v 3.848786 h -1.047599 v -3.814625 q 0,-0.905262 -0.352995,-1.355046 -0.352995,-0.449785 -1.058986,-0.449785 -0.848327,0 -1.337965,0.54088 -0.489639,0.54088 -0.489639,1.474609 v 3.603967 h -1.053292 v -8.85904 h 1.053292 v 3.473017 q 0.375769,-0.575041 0.882488,-0.859714 0.512413,-0.284674 1.178549,-0.284674 1.09884,0 1.662493,0.683217 0.563654,0.677523 0.563654,1.998408 z"
         style="fill:none;stroke:#800080;stroke-width:0.30927107;stroke-miterlimit:4;stroke-dasharray:none"
         id="path1586" />
      <path
         d="m 35.977609,38.720546 v 1.810524 h 2.157825 v 0.814166 h -2.157825 v 3.46163 q 0,0.780006 0.210658,1.002051 0.216352,0.222045 0.871101,0.222045 h 1.076066 v 0.876795 h -1.076066 q -1.212709,0 -1.67388,-0.449784 -0.461171,-0.455478 -0.461171,-1.651107 v -3.46163 H 34.155698 V 40.53107 h 0.768619 v -1.810524 z"
         style="fill:none;stroke:#800080;stroke-width:0.30927107;stroke-miterlimit:4;stroke-dasharray:none"
         id="path1588" />
      <path
         d="m 40.555159,38.720546 v 1.810524 h 2.157826 v 0.814166 h -2.157826 v 3.46163 q 0,0.780006 0.210659,1.002051 0.216352,0.222045 0.871101,0.222045 h 1.076066 v 0.876795 h -1.076066 q -1.21271,0 -1.673881,-0.449784 -0.461171,-0.455478 -0.461171,-1.651107 v -3.46163 H 38.733249 V 40.53107 h 0.768618 v -1.810524 z"
         style="fill:none;stroke:#800080;stroke-width:0.30927107;stroke-miterlimit:4;stroke-dasharray:none"
         id="path1590" />
      <path
         d="m 45.109935,45.951254 v 3.381921 H 44.056643 V 40.53107 h 1.053292 v 0.96789 q 0.330222,-0.569347 0.831247,-0.842634 0.506719,-0.27898 1.207016,-0.27898 1.161468,0 1.884539,0.922342 0.728764,0.922343 0.728764,2.425419 0,1.503076 -0.728764,2.425418 -0.723071,0.922342 -1.884539,0.922342 -0.700297,0 -1.207016,-0.273286 -0.501025,-0.27898 -0.831247,-0.848327 z m 3.564113,-2.226147 q 0,-1.155775 -0.478252,-1.810524 -0.472558,-0.660442 -1.303804,-0.660442 -0.831247,0 -1.309499,0.660442 -0.472558,0.654749 -0.472558,1.810524 0,1.155774 0.472558,1.816217 0.478252,0.654749 1.309499,0.654749 0.831246,0 1.303804,-0.654749 0.478252,-0.660443 0.478252,-1.816217 z"
         style="fill:none;stroke:#800080;stroke-width:0.30927107;stroke-miterlimit:4;stroke-dasharray:none"
         id="path1592" />
      <path
         d="m 51.765603,45.461615 h 1.201322 v 1.446142 h -1.201322 z m 0,-4.583244 h 1.201322 v 1.446142 h -1.201322 z"
         style="fill:none;stroke:#800080;stroke-width:0.30927107;stroke-miterlimit:4;stroke-dasharray:none"
         id="path1594" />
      <path
         d="m 57.299657,38.407405 h 0.96789 l -2.960605,9.582111 h -0.96789 z"
         style="fill:none;stroke:#800080;stroke-width:0.30927107;stroke-miterlimit:4;stroke-dasharray:none"
         id="path1596" />
      <path
         d="m 61.239537,38.407405 h 0.96789 l -2.960604,9.582111 h -0.96789 z"
         style="fill:none;stroke:#800080;stroke-width:0.30927107;stroke-miterlimit:4;stroke-dasharray:none"
         id="path1598" />
      <path
         d="m 63.465683,45.461615 h 1.201322 v 1.446142 h -1.201322 z"
         style="fill:none;stroke:#800080;stroke-width:0.30927107;stroke-miterlimit:4;stroke-dasharray:none"
         id="path1600" />
      <path
         d="m 67.177826,45.461615 h 1.201322 v 1.446142 h -1.201322 z"
         style="fill:none;stroke:#800080;stroke-width:0.30927107;stroke-miterlimit:4;stroke-dasharray:none"
         id="path1602" />
      <path
         d="m 70.889969,45.461615 h 1.201322 v 1.446142 h -1.201322 z"
         style="fill:none;stroke:#800080;stroke-width:0.30927107;stroke-miterlimit:4;stroke-dasharray:none"
         id="path1604" />
    </g>
  </g>
</svg>
